<?xml version="1.0" encoding="UTF-8" standalone="no"?>
<svg
   viewBox="0 0 24 24"
   version="1.1"
   id="svg19013"
   sodipodi:docname="star-icon-clicked.svg"
   inkscape:version="1.2.2 (732a01da63, 2022-12-09)"
   xmlns:inkscape="http://www.inkscape.org/namespaces/inkscape"
   xmlns:sodipodi="http://sodipodi.sourceforge.net/DTD/sodipodi-0.dtd"
   xmlns="http://www.w3.org/2000/svg"
   xmlns:svg="http://www.w3.org/2000/svg">
  <defs
     id="defs19017" />
  <sodipodi:namedview
     id="namedview19015"
     pagecolor="#ffffff"
     bordercolor="#000000"
     borderopacity="0.25"
     inkscape:showpageshadow="2"
     inkscape:pageopacity="0.0"
     inkscape:pagecheckerboard="0"
     inkscape:deskcolor="#d1d1d1"
     showgrid="false"
     inkscape:zoom="1.4989191"
     inkscape:cx="-65.71402"
     inkscape:cy="-88.397032"
     inkscape:window-width="1920"
     inkscape:window-height="1001"
     inkscape:window-x="-9"
     inkscape:window-y="-9"
     inkscape:window-maximized="1"
     inkscape:current-layer="svg19013" />
  <path
     d="M5.8 21L7.4 14L2 9.2L9.2 8.6L12 2L14.8 8.6L22 9.2L18.8 12H18C17.3 12 16.6 12.1 15.9 12.4L18.1 10.5L13.7 10.1L12 6.1L10.3 10.1L5.9 10.5L9.2 13.4L8.2 17.7L12 15.4L12.5 15.7C12.3 16.2 12.1 16.8 12.1 17.3L5.8 21M17 14V17H14V19H17V22H19V19H22V17H19V14H17Z"
     id="path19011"
     style="fill:#ef4444;fill-opacity:1;stroke:none;stroke-opacity:1;stroke-width:0.2;stroke-dasharray:none" />
</svg>
